<svg xmlns="http://www.w3.org/2000/svg" viewBox="0 0 950.00 363.40">
  <style>
    .key-bg { fill: #f5f5f5; stroke: #d4d4d4; stroke-width: 1; }
    .key-index { fill: #171717; font-family: ui-monospace, SFMono-Regular, "SF Mono", Menlo, Consolas, "Liberation Mono", monospace; font-weight: 700; text-anchor: middle; dominant-baseline: central; }
    .key-part { font-family: system-ui, -apple-system, BlinkMacSystemFont, "Segoe UI", Roboto, sans-serif; text-anchor: middle; dominant-baseline: central; }
    @media (prefers-color-scheme: dark) {
      .key-bg { fill: #2a2a2a; stroke: #404040; }
      .key-index { fill: #e5e5e5; }
    }
    .key-bg.part-0 { stroke: #f59e0b; }
    .key-part.part-0 { fill: #f59e0b; }
    .key-bg.part-1 { stroke: #14b8a6; }
    .key-part.part-1 { fill: #14b8a6; }
  </style>
  <g>
    <path class="key-bg part-0" d="M 26.00,65.40 L 84.00,65.40 Q 88.00,65.40 88.00,69.40 L 88.00,127.40 Q 88.00,131.40 84.00,131.40 L 26.00,131.40 Q 22.00,131.40 22.00,127.40 L 22.00,69.40 Q 22.00,65.40 26.00,65.40 Z" />
    <path class="key-bg part-0" d="M 96.00,39.50 L 154.00,39.50 Q 158.00,39.50 158.00,43.50 L 158.00,101.50 Q 158.00,105.50 154.00,105.50 L 96.00,105.50 Q 92.00,105.50 92.00,101.50 L 92.00,43.50 Q 92.00,39.50 96.00,39.50 Z" />
    <path class="key-bg part-0" d="M 166.00,22.00 L 224.00,22.00 Q 228.00,22.00 228.00,26.00 L 228.00,84.00 Q 228.00,88.00 224.00,88.00 L 166.00,88.00 Q 162.00,88.00 162.00,84.00 L 162.00,26.00 Q 162.00,22.00 166.00,22.00 Z" />
    <path class="key-bg part-0" d="M 236.00,39.50 L 294.00,39.50 Q 298.00,39.50 298.00,43.50 L 298.00,101.50 Q 298.00,105.50 294.00,105.50 L 236.00,105.50 Q 232.00,105.50 232.00,101.50 L 232.00,43.50 Q 232.00,39.50 236.00,39.50 Z" />
    <path class="key-bg part-0" d="M 306.00,65.40 L 364.00,65.40 Q 368.00,65.40 368.00,69.40 L 368.00,127.40 Q 368.00,131.40 364.00,131.40 L 306.00,131.40 Q 302.00,131.40 302.00,127.40 L 302.00,69.40 Q 302.00,65.40 306.00,65.40 Z" />
    <path class="key-bg part-1" d="M 586.00,65.40 L 644.00,65.40 Q 648.00,65.40 648.00,69.40 L 648.00,127.40 Q 648.00,131.40 644.00,131.40 L 586.00,131.40 Q 582.00,131.40 582.00,127.40 L 582.00,69.40 Q 582.00,65.40 586.00,65.40 Z" />
    <path class="key-bg part-1" d="M 656.00,39.50 L 714.00,39.50 Q 718.00,39.50 718.00,43.50 L 718.00,101.50 Q 718.00,105.50 714.00,105.50 L 656.00,105.50 Q 652.00,105.50 652.00,101.50 L 652.00,43.50 Q 652.00,39.50 656.00,39.50 Z" />
    <path class="key-bg part-1" d="M 726.00,22.00 L 784.00,22.00 Q 788.00,22.00 788.00,26.00 L 788.00,84.00 Q 788.00,88.00 784.00,88.00 L 726.00,88.00 Q 722.00,88.00 722.00,84.00 L 722.00,26.00 Q 722.00,22.00 726.00,22.00 Z" />
    <path class="key-bg part-1" d="M 796.00,39.50 L 854.00,39.50 Q 858.00,39.50 858.00,43.50 L 858.00,101.50 Q 858.00,105.50 854.00,105.50 L 796.00,105.50 Q 792.00,105.50 792.00,101.50 L 792.00,43.50 Q 792.00,39.50 796.00,39.50 Z" />
    <path class="key-bg part-1" d="M 866.00,65.40 L 924.00,65.40 Q 928.00,65.40 928.00,69.40 L 928.00,127.40 Q 928.00,131.40 924.00,131.40 L 866.00,131.40 Q 862.00,131.40 862.00,127.40 L 862.00,69.40 Q 862.00,65.40 866.00,65.40 Z" />
    <path class="key-bg part-0" d="M 26.00,135.40 L 84.00,135.40 Q 88.00,135.40 88.00,139.40 L 88.00,197.40 Q 88.00,201.40 84.00,201.40 L 26.00,201.40 Q 22.00,201.40 22.00,197.40 L 22.00,139.40 Q 22.00,135.40 26.00,135.40 Z" />
    <path class="key-bg part-0" d="M 96.00,109.50 L 154.00,109.50 Q 158.00,109.50 158.00,113.50 L 158.00,171.50 Q 158.00,175.50 154.00,175.50 L 96.00,175.50 Q 92.00,175.50 92.00,171.50 L 92.00,113.50 Q 92.00,109.50 96.00,109.50 Z" />
    <path class="key-bg part-0" d="M 166.00,92.00 L 224.00,92.00 Q 228.00,92.00 228.00,96.00 L 228.00,154.00 Q 228.00,158.00 224.00,158.00 L 166.00,158.00 Q 162.00,158.00 162.00,154.00 L 162.00,96.00 Q 162.00,92.00 166.00,92.00 Z" />
    <path class="key-bg part-0" d="M 236.00,109.50 L 294.00,109.50 Q 298.00,109.50 298.00,113.50 L 298.00,171.50 Q 298.00,175.50 294.00,175.50 L 236.00,175.50 Q 232.00,175.50 232.00,171.50 L 232.00,113.50 Q 232.00,109.50 236.00,109.50 Z" />
    <path class="key-bg part-0" d="M 306.00,135.40 L 364.00,135.40 Q 368.00,135.40 368.00,139.40 L 368.00,197.40 Q 368.00,201.40 364.00,201.40 L 306.00,201.40 Q 302.00,201.40 302.00,197.40 L 302.00,139.40 Q 302.00,135.40 306.00,135.40 Z" />
    <path class="key-bg part-1" d="M 586.00,135.40 L 644.00,135.40 Q 648.00,135.40 648.00,139.40 L 648.00,197.40 Q 648.00,201.40 644.00,201.40 L 586.00,201.40 Q 582.00,201.40 582.00,197.40 L 582.00,139.40 Q 582.00,135.40 586.00,135.40 Z" />
    <path class="key-bg part-1" d="M 656.00,109.50 L 714.00,109.50 Q 718.00,109.50 718.00,113.50 L 718.00,171.50 Q 718.00,175.50 714.00,175.50 L 656.00,175.50 Q 652.00,175.50 652.00,171.50 L 652.00,113.50 Q 652.00,109.50 656.00,109.50 Z" />
    <path class="key-bg part-1" d="M 726.00,92.00 L 784.00,92.00 Q 788.00,92.00 788.00,96.00 L 788.00,154.00 Q 788.00,158.00 784.00,158.00 L 726.00,158.00 Q 722.00,158.00 722.00,154.00 L 722.00,96.00 Q 722.00,92.00 726.00,92.00 Z" />
    <path class="key-bg part-1" d="M 796.00,109.50 L 854.00,109.50 Q 858.00,109.50 858.00,113.50 L 858.00,171.50 Q 858.00,175.50 854.00,175.50 L 796.00,175.50 Q 792.00,175.50 792.00,171.50 L 792.00,113.50 Q 792.00,109.50 796.00,109.50 Z" />
    <path class="key-bg part-1" d="M 866.00,135.40 L 924.00,135.40 Q 928.00,135.40 928.00,139.40 L 928.00,197.40 Q 928.00,201.40 924.00,201.40 L 866.00,201.40 Q 862.00,201.40 862.00,197.40 L 862.00,139.40 Q 862.00,135.40 866.00,135.40 Z" />
    <path class="key-bg part-0" d="M 26.00,205.40 L 84.00,205.40 Q 88.00,205.40 88.00,209.40 L 88.00,267.40 Q 88.00,271.40 84.00,271.40 L 26.00,271.40 Q 22.00,271.40 22.00,267.40 L 22.00,209.40 Q 22.00,205.40 26.00,205.40 Z" />
    <path class="key-bg part-0" d="M 96.00,179.50 L 154.00,179.50 Q 158.00,179.50 158.00,183.50 L 158.00,241.50 Q 158.00,245.50 154.00,245.50 L 96.00,245.50 Q 92.00,245.50 92.00,241.50 L 92.00,183.50 Q 92.00,179.50 96.00,179.50 Z" />
    <path class="key-bg part-0" d="M 166.00,162.00 L 224.00,162.00 Q 228.00,162.00 228.00,166.00 L 228.00,224.00 Q 228.00,228.00 224.00,228.00 L 166.00,228.00 Q 162.00,228.00 162.00,224.00 L 162.00,166.00 Q 162.00,162.00 166.00,162.00 Z" />
    <path class="key-bg part-0" d="M 236.00,179.50 L 294.00,179.50 Q 298.00,179.50 298.00,183.50 L 298.00,241.50 Q 298.00,245.50 294.00,245.50 L 236.00,245.50 Q 232.00,245.50 232.00,241.50 L 232.00,183.50 Q 232.00,179.50 236.00,179.50 Z" />
    <path class="key-bg part-0" d="M 306.00,205.40 L 364.00,205.40 Q 368.00,205.40 368.00,209.40 L 368.00,267.40 Q 368.00,271.40 364.00,271.40 L 306.00,271.40 Q 302.00,271.40 302.00,267.40 L 302.00,209.40 Q 302.00,205.40 306.00,205.40 Z" />
    <path class="key-bg part-1" d="M 586.00,205.40 L 644.00,205.40 Q 648.00,205.40 648.00,209.40 L 648.00,267.40 Q 648.00,271.40 644.00,271.40 L 586.00,271.40 Q 582.00,271.40 582.00,267.40 L 582.00,209.40 Q 582.00,205.40 586.00,205.40 Z" />
    <path class="key-bg part-1" d="M 656.00,179.50 L 714.00,179.50 Q 718.00,179.50 718.00,183.50 L 718.00,241.50 Q 718.00,245.50 714.00,245.50 L 656.00,245.50 Q 652.00,245.50 652.00,241.50 L 652.00,183.50 Q 652.00,179.50 656.00,179.50 Z" />
    <path class="key-bg part-1" d="M 726.00,162.00 L 784.00,162.00 Q 788.00,162.00 788.00,166.00 L 788.00,224.00 Q 788.00,228.00 784.00,228.00 L 726.00,228.00 Q 722.00,228.00 722.00,224.00 L 722.00,166.00 Q 722.00,162.00 726.00,162.00 Z" />
    <path class="key-bg part-1" d="M 796.00,179.50 L 854.00,179.50 Q 858.00,179.50 858.00,183.50 L 858.00,241.50 Q 858.00,245.50 854.00,245.50 L 796.00,245.50 Q 792.00,245.50 792.00,241.50 L 792.00,183.50 Q 792.00,179.50 796.00,179.50 Z" />
    <path class="key-bg part-1" d="M 866.00,205.40 L 924.00,205.40 Q 928.00,205.40 928.00,209.40 L 928.00,267.40 Q 928.00,271.40 924.00,271.40 L 866.00,271.40 Q 862.00,271.40 862.00,267.40 L 862.00,209.40 Q 862.00,205.40 866.00,205.40 Z" />
    <path class="key-bg part-0" d="M 26.00,275.40 L 84.00,275.40 Q 88.00,275.40 88.00,279.40 L 88.00,337.40 Q 88.00,341.40 84.00,341.40 L 26.00,341.40 Q 22.00,341.40 22.00,337.40 L 22.00,279.40 Q 22.00,275.40 26.00,275.40 Z" />
    <path class="key-bg part-0" d="M 96.00,249.50 L 154.00,249.50 Q 158.00,249.50 158.00,253.50 L 158.00,311.50 Q 158.00,315.50 154.00,315.50 L 96.00,315.50 Q 92.00,315.50 92.00,311.50 L 92.00,253.50 Q 92.00,249.50 96.00,249.50 Z" />
    <path class="key-bg part-0" d="M 166.00,232.00 L 224.00,232.00 Q 228.00,232.00 228.00,236.00 L 228.00,294.00 Q 228.00,298.00 224.00,298.00 L 166.00,298.00 Q 162.00,298.00 162.00,294.00 L 162.00,236.00 Q 162.00,232.00 166.00,232.00 Z" />
    <path class="key-bg part-0" d="M 236.00,249.50 L 294.00,249.50 Q 298.00,249.50 298.00,253.50 L 298.00,311.50 Q 298.00,315.50 294.00,315.50 L 236.00,315.50 Q 232.00,315.50 232.00,311.50 L 232.00,253.50 Q 232.00,249.50 236.00,249.50 Z" />
    <path class="key-bg part-0" d="M 306.00,275.40 L 364.00,275.40 Q 368.00,275.40 368.00,279.40 L 368.00,337.40 Q 368.00,341.40 364.00,341.40 L 306.00,341.40 Q 302.00,341.40 302.00,337.40 L 302.00,279.40 Q 302.00,275.40 306.00,275.40 Z" />
    <path class="key-bg part-1" d="M 586.00,275.40 L 644.00,275.40 Q 648.00,275.40 648.00,279.40 L 648.00,337.40 Q 648.00,341.40 644.00,341.40 L 586.00,341.40 Q 582.00,341.40 582.00,337.40 L 582.00,279.40 Q 582.00,275.40 586.00,275.40 Z" />
    <path class="key-bg part-1" d="M 656.00,249.50 L 714.00,249.50 Q 718.00,249.50 718.00,253.50 L 718.00,311.50 Q 718.00,315.50 714.00,315.50 L 656.00,315.50 Q 652.00,315.50 652.00,311.50 L 652.00,253.50 Q 652.00,249.50 656.00,249.50 Z" />
    <path class="key-bg part-1" d="M 726.00,232.00 L 784.00,232.00 Q 788.00,232.00 788.00,236.00 L 788.00,294.00 Q 788.00,298.00 784.00,298.00 L 726.00,298.00 Q 722.00,298.00 722.00,294.00 L 722.00,236.00 Q 722.00,232.00 726.00,232.00 Z" />
    <path class="key-bg part-1" d="M 796.00,249.50 L 854.00,249.50 Q 858.00,249.50 858.00,253.50 L 858.00,311.50 Q 858.00,315.50 854.00,315.50 L 796.00,315.50 Q 792.00,315.50 792.00,311.50 L 792.00,253.50 Q 792.00,249.50 796.00,249.50 Z" />
    <path class="key-bg part-1" d="M 866.00,275.40 L 924.00,275.40 Q 928.00,275.40 928.00,279.40 L 928.00,337.40 Q 928.00,341.40 924.00,341.40 L 866.00,341.40 Q 862.00,341.40 862.00,337.40 L 862.00,279.40 Q 862.00,275.40 866.00,275.40 Z" />
  </g>
  <g>
    <text class="key-index" x="55.00" y="86.76" font-size="26">0</text>
    <text class="key-part part-0" x="55.00" y="114.04" font-size="18">left</text>
    <text class="key-index" x="125.00" y="60.86" font-size="26">1</text>
    <text class="key-part part-0" x="125.00" y="88.14" font-size="18">left</text>
    <text class="key-index" x="195.00" y="43.36" font-size="26">2</text>
    <text class="key-part part-0" x="195.00" y="70.64" font-size="18">left</text>
    <text class="key-index" x="265.00" y="60.86" font-size="26">3</text>
    <text class="key-part part-0" x="265.00" y="88.14" font-size="18">left</text>
    <text class="key-index" x="335.00" y="86.76" font-size="26">4</text>
    <text class="key-part part-0" x="335.00" y="114.04" font-size="18">left</text>
    <text class="key-index" x="615.00" y="86.76" font-size="26">5</text>
    <text class="key-part part-1" x="615.00" y="114.04" font-size="18">right</text>
    <text class="key-index" x="685.00" y="60.86" font-size="26">6</text>
    <text class="key-part part-1" x="685.00" y="88.14" font-size="18">right</text>
    <text class="key-index" x="755.00" y="43.36" font-size="26">7</text>
    <text class="key-part part-1" x="755.00" y="70.64" font-size="18">right</text>
    <text class="key-index" x="825.00" y="60.86" font-size="26">8</text>
    <text class="key-part part-1" x="825.00" y="88.14" font-size="18">right</text>
    <text class="key-index" x="895.00" y="86.76" font-size="26">9</text>
    <text class="key-part part-1" x="895.00" y="114.04" font-size="18">right</text>
    <text class="key-index" x="55.00" y="156.76" font-size="26">10</text>
    <text class="key-part part-0" x="55.00" y="184.04" font-size="18">left</text>
    <text class="key-index" x="125.00" y="130.86" font-size="26">11</text>
    <text class="key-part part-0" x="125.00" y="158.14" font-size="18">left</text>
    <text class="key-index" x="195.00" y="113.36" font-size="26">12</text>
    <text class="key-part part-0" x="195.00" y="140.64" font-size="18">left</text>
    <text class="key-index" x="265.00" y="130.86" font-size="26">13</text>
    <text class="key-part part-0" x="265.00" y="158.14" font-size="18">left</text>
    <text class="key-index" x="335.00" y="156.76" font-size="26">14</text>
    <text class="key-part part-0" x="335.00" y="184.04" font-size="18">left</text>
    <text class="key-index" x="615.00" y="156.76" font-size="26">15</text>
    <text class="key-part part-1" x="615.00" y="184.04" font-size="18">right</text>
    <text class="key-index" x="685.00" y="130.86" font-size="26">16</text>
    <text class="key-part part-1" x="685.00" y="158.14" font-size="18">right</text>
    <text class="key-index" x="755.00" y="113.36" font-size="26">17</text>
    <text class="key-part part-1" x="755.00" y="140.64" font-size="18">right</text>
    <text class="key-index" x="825.00" y="130.86" font-size="26">18</text>
    <text class="key-part part-1" x="825.00" y="158.14" font-size="18">right</text>
    <text class="key-index" x="895.00" y="156.76" font-size="26">19</text>
    <text class="key-part part-1" x="895.00" y="184.04" font-size="18">right</text>
    <text class="key-index" x="55.00" y="226.76" font-size="26">20</text>
    <text class="key-part part-0" x="55.00" y="254.04" font-size="18">left</text>
    <text class="key-index" x="125.00" y="200.86" font-size="26">21</text>
    <text class="key-part part-0" x="125.00" y="228.14" font-size="18">left</text>
    <text class="key-index" x="195.00" y="183.36" font-size="26">22</text>
    <text class="key-part part-0" x="195.00" y="210.64" font-size="18">left</text>
    <text class="key-index" x="265.00" y="200.86" font-size="26">23</text>
    <text class="key-part part-0" x="265.00" y="228.14" font-size="18">left</text>
    <text class="key-index" x="335.00" y="226.76" font-size="26">24</text>
    <text class="key-part part-0" x="335.00" y="254.04" font-size="18">left</text>
    <text class="key-index" x="615.00" y="226.76" font-size="26">25</text>
    <text class="key-part part-1" x="615.00" y="254.04" font-size="18">right</text>
    <text class="key-index" x="685.00" y="200.86" font-size="26">26</text>
    <text class="key-part part-1" x="685.00" y="228.14" font-size="18">right</text>
    <text class="key-index" x="755.00" y="183.36" font-size="26">27</text>
    <text class="key-part part-1" x="755.00" y="210.64" font-size="18">right</text>
    <text class="key-index" x="825.00" y="200.86" font-size="26">28</text>
    <text class="key-part part-1" x="825.00" y="228.14" font-size="18">right</text>
    <text class="key-index" x="895.00" y="226.76" font-size="26">29</text>
    <text class="key-part part-1" x="895.00" y="254.04" font-size="18">right</text>
    <text class="key-index" x="55.00" y="296.76" font-size="26">30</text>
    <text class="key-part part-0" x="55.00" y="324.04" font-size="18">left</text>
    <text class="key-index" x="125.00" y="270.86" font-size="26">31</text>
    <text class="key-part part-0" x="125.00" y="298.14" font-size="18">left</text>
    <text class="key-index" x="195.00" y="253.36" font-size="26">32</text>
    <text class="key-part part-0" x="195.00" y="280.64" font-size="18">left</text>
    <text class="key-index" x="265.00" y="270.86" font-size="26">33</text>
    <text class="key-part part-0" x="265.00" y="298.14" font-size="18">left</text>
    <text class="key-index" x="335.00" y="296.76" font-size="26">34</text>
    <text class="key-part part-0" x="335.00" y="324.04" font-size="18">left</text>
    <text class="key-index" x="615.00" y="296.76" font-size="26">35</text>
    <text class="key-part part-1" x="615.00" y="324.04" font-size="18">right</text>
    <text class="key-index" x="685.00" y="270.86" font-size="26">36</text>
    <text class="key-part part-1" x="685.00" y="298.14" font-size="18">right</text>
    <text class="key-index" x="755.00" y="253.36" font-size="26">37</text>
    <text class="key-part part-1" x="755.00" y="280.64" font-size="18">right</text>
    <text class="key-index" x="825.00" y="270.86" font-size="26">38</text>
    <text class="key-part part-1" x="825.00" y="298.14" font-size="18">right</text>
    <text class="key-index" x="895.00" y="296.76" font-size="26">39</text>
    <text class="key-part part-1" x="895.00" y="324.04" font-size="18">right</text>
  </g>
</svg>
